<?xml version="1.0" encoding="utf-8"?>
<!-- Generator: Adobe Illustrator 23.0.4, SVG Export Plug-In . SVG Version: 6.00 Build 0)  -->
<svg version="1.1" id="Layer_1" xmlns="http://www.w3.org/2000/svg" xmlns:xlink="http://www.w3.org/1999/xlink" x="0px" y="0px"
	 viewBox="0 0 64 73.9" style="enable-background:new 0 0 64 73.9;" xml:space="preserve">
<style type="text/css">
	.st0{fill:#FFDE17;}
	.st1{fill:#FFF682;}
	.st2{fill:#FFF200;}
	.st3{fill:#FBB117;}
	.st4{fill:#FEC20F;}
</style>
<g>
	<g id="PathID_113_1_" transform="matrix(1, 0, 0, 1, 390.85, 284.35)">
		<path class="st0" d="M-354.5-231c5.4-5.4,8.1-12,8.1-19.6s-2.7-14.2-8.1-19.6c-3.5-3.5-7.4-5.9-11.9-7.1c2.5-0.7,5.1-1,7.8-1
			c7.7,0,14.2,2.7,19.6,8.2c5.4,5.4,8.1,11.9,8.1,19.6s-2.7,14.2-8.1,19.6c-5.4,5.4-12,8.1-19.6,8.1c-2.8,0-5.4-0.3-7.8-1
			C-362-225.1-358-227.5-354.5-231"/>
	</g>
	<g id="PathID_87_1_" transform="matrix(1, 0, 0, 1, 274.8, 79.65)">
		<path class="st1" d="M-248.1-40.2c2.4-2.4,3.6-5.3,3.6-8.7s-1.2-6.3-3.6-8.7c-2.4-2.4-5.3-3.6-8.7-3.6c-3.4,0-6.3,1.2-8.7,3.6
			c-0.7,0.7-1.2,1.3-1.7,2.1c1.1-4.5,3.4-8.5,7-12.1c5.2-5.2,11.4-7.7,18.7-7.7s13.5,2.6,18.7,7.7c5.2,5.2,7.7,11.4,7.7,18.7
			s-2.6,13.5-7.7,18.7c-5.2,5.2-11.4,7.7-18.7,7.7s-13.5-2.6-18.7-7.7c-3.5-3.5-5.9-7.6-7-12.1c0.5,0.7,1,1.4,1.7,2.1
			c2.4,2.4,5.3,3.6,8.7,3.6C-253.4-36.6-250.5-37.8-248.1-40.2"/>
	</g>
	<g id="PathID_95" transform="matrix(1, 0, 0, 1, 348.8, 248.35)">
		<path class="st2" d="M-293.8-232.8c-4.1,4.2-6.1,9.2-6.1,15.1c0,5.9,2,10.9,6.1,15.1c-1.1,1.6-2.3,3.1-3.7,4.5
			c-5.4,5.4-11.9,8.1-19.6,8.1s-14.2-2.7-19.6-8.1c-5.4-5.4-8.1-11.9-8.1-19.6c0-7.7,2.7-14.2,8.1-19.6c5.4-5.4,12-8.1,19.6-8.1
			s14.2,2.7,19.6,8.1C-296.1-235.9-294.8-234.3-293.8-232.8"/>
	</g>
	<g id="PathID_87" transform="matrix(1, 0, 0, 1, 274.8, 79.65)">
		<path class="st0" d="M-237.3-57.7c-2.4,2.4-3.6,5.3-3.6,8.7s1.2,6.3,3.6,8.7c2.4,2.4,5.3,3.6,8.7,3.6c3.4,0,6.3-1.2,8.7-3.6
			c0.7-0.7,1.2-1.3,1.7-2.1c-1.1,4.5-3.4,8.5-7,12.1c-5.2,5.2-11.4,7.7-18.7,7.7c-7.3,0-13.5-2.6-18.7-7.7
			c-5.2-5.2-7.7-11.4-7.7-18.7s2.6-13.5,7.7-18.7c5.2-5.2,11.4-7.7,18.7-7.7s13.5,2.6,18.7,7.7c3.5,3.5,5.9,7.6,7,12.1
			c-0.5-0.7-1-1.4-1.7-2.1c-2.4-2.4-5.3-3.6-8.7-3.6C-232-61.2-234.9-60-237.3-57.7"/>
	</g>
	<g id="PathID_99" transform="matrix(1, 0, 0, 1, 163.5, 269.65)">
		<path class="st3" d="M-106.3-250.2v0.4c-0.9-1.6-2.1-3-3.4-4.4c-4.2-4.2-9.3-6.3-15.3-6.3s-11.1,2.1-15.3,6.3
			c-4.2,4.2-6.3,9.4-6.3,15.3s2.1,11.1,6.3,15.3c4.2,4.2,9.4,6.4,15.3,6.4s11.1-2.1,15.3-6.4c1.4-1.4,2.5-2.8,3.4-4.3v0.4
			c-1.4,3-3.3,5.7-5.8,8.2c-5.4,5.4-11.9,8.1-19.6,8.1c-7.7,0-14.2-2.7-19.6-8.1c-5.4-5.4-8.1-11.9-8.1-19.6
			c0-7.7,2.7-14.2,8.1-19.6c5.4-5.4,12-8.1,19.6-8.1c7.7,0,14.2,2.7,19.6,8.1C-109.6-256-107.7-253.3-106.3-250.2"/>
	</g>
	<g id="PathID_113" transform="matrix(1, 0, 0, 1, 390.85, 284.35)">
		<path class="st4" d="M-363.2-273.3c-5.4,5.4-8.1,12-8.1,19.6c0,7.7,2.7,14.2,8.1,19.6c3.5,3.5,7.4,5.9,11.9,7.1
			c-2.5,0.7-5.1,1-7.8,1c-7.7,0-14.2-2.7-19.6-8.2c-5.4-5.4-8.1-11.9-8.1-19.6c0-7.7,2.7-14.2,8.1-19.6c5.4-5.4,12-8.1,19.6-8.1
			c2.8,0,5.4,0.3,7.8,1C-355.7-279.1-359.7-276.7-363.2-273.3"/>
	</g>
</g>
</svg>
